<svg version="1.1" id="Layer_1" xmlns="http://www.w3.org/2000/svg" xmlns:xlink="http://www.w3.org/1999/xlink" x="0px" y="0px"
	 width="100%" viewBox="0 0 500 500" enable-background="new 0 0 500 500" xml:space="preserve">
<path fill="#47704C" opacity="1.000000" stroke="none" 
	d="
M108.000000,501.000000 
	C72.355194,501.000000 36.710392,501.000000 1.032794,501.000000 
	C1.032794,334.457367 1.032794,167.914719 1.032794,1.000000 
	C36.353359,1.000000 71.708023,1.000000 107.531059,1.468657 
	C107.999435,25.522003 107.999435,49.106693 107.999435,73.000648 
	C110.395370,73.000648 112.202530,73.000648 114.009689,73.000648 
	C158.812836,73.000648 203.616776,73.160561 248.418793,72.935852 
	C272.231079,72.816437 291.889648,81.487183 306.523804,100.107201 
	C319.980865,117.229469 325.040649,136.788666 320.299164,158.489960 
	C315.778320,179.181488 304.112274,194.710770 286.064453,205.313995 
	C272.558411,213.248840 257.844879,216.556091 241.787628,214.195068 
	C241.244492,214.252716 241.036850,214.337830 240.567871,214.411652 
	C239.957947,214.407806 239.609329,214.415268 238.880127,214.248108 
	C237.586777,213.716660 236.702957,213.221695 235.756958,213.023468 
	C216.639023,209.017578 201.790833,198.571045 191.140564,182.446793 
	C183.198303,170.422424 179.234451,156.868683 179.049561,142.426514 
	C178.834320,125.613304 178.999146,108.795227 178.999039,91.979263 
	C178.999023,90.079041 178.999054,88.178818 178.999054,86.316528 
	C154.481247,86.316528 130.914627,86.316528 107.000870,86.316528 
	C107.000870,88.427979 107.000870,90.234253 107.000870,92.040520 
	C107.000847,111.020912 106.624809,130.011993 107.163269,148.977097 
	C107.423103,158.128708 108.852829,167.346268 110.724701,176.331497 
	C114.192688,192.978241 120.448387,208.767578 130.406128,222.529556 
	C137.758926,232.691406 146.830032,241.609924 154.983154,251.382095 
	C149.388519,257.496490 143.485229,262.949097 138.584610,269.189148 
	C118.374519,294.923096 107.861580,324.099976 107.961884,357.034485 
	C108.108040,405.022583 107.999786,453.011444 108.000000,501.000000 
z"/>
<path fill="#47704C" opacity="1.000000" stroke="none" 
	d="
M268.000000,1.000001 
	C345.631592,1.000000 423.263153,1.000000 500.947388,1.000000 
	C500.947388,167.556290 500.947388,334.112610 500.947388,501.000000 
	C423.978882,501.000000 346.957306,501.000000 269.702454,500.668488 
	C274.165588,499.540771 278.902161,498.929474 283.551453,497.917267 
	C307.417633,492.721375 328.530273,481.782562 346.722626,465.716675 
	C363.045471,451.301758 375.460663,433.774231 383.861145,413.563324 
	C391.539337,395.090057 394.892914,375.736633 394.895172,355.830170 
	C394.895874,349.601807 393.709076,343.369202 393.001923,337.145782 
	C391.471008,323.672394 387.587799,310.880249 381.882996,298.598083 
	C376.534698,287.083588 370.208038,276.163330 361.867249,266.565369 
	C357.132843,261.117432 351.881989,256.118347 347.016479,250.617584 
	C353.381012,243.442322 360.171570,237.000473 365.706451,229.617264 
	C392.540161,193.822617 399.994934,153.594955 390.343933,110.434586 
	C383.827911,81.294044 368.904724,56.582550 346.251495,36.711704 
	C329.663757,22.161364 311.040192,11.511334 289.633179,5.965764 
	C282.473785,4.111092 275.213928,2.644169 268.000000,1.000001 
z"/>
<path fill="#FFFFFF" opacity="1.000000" stroke="none" 
	d="
M267.531342,1.000001 
	C275.213928,2.644169 282.473785,4.111092 289.633179,5.965764 
	C311.040192,11.511334 329.663757,22.161364 346.251495,36.711704 
	C368.904724,56.582550 383.827911,81.294044 390.343933,110.434586 
	C399.994934,153.594955 392.540161,193.822617 365.706451,229.617264 
	C360.171570,237.000473 353.381012,243.442322 346.677887,250.681335 
	C337.343140,257.070435 328.837738,263.685181 319.584137,268.996307 
	C301.735382,279.240662 282.316956,284.802277 261.714447,286.084869 
	C261.064362,286.125336 260.478241,287.192902 259.446899,287.820435 
	C251.334000,286.103851 244.014984,288.014893 236.400772,289.204620 
	C226.306046,290.781952 217.706161,294.885254 209.857498,300.656616 
	C189.583267,315.564819 179.884750,335.865845 179.959976,361.071533 
	C180.099182,407.713959 179.999924,454.357147 180.000000,501.000000 
	C156.312439,501.000000 132.624878,501.000000 108.468658,501.000000 
	C107.999786,453.011444 108.108040,405.022583 107.961884,357.034485 
	C107.861580,324.099976 118.374519,294.923096 138.584610,269.189148 
	C143.485229,262.949097 149.388519,257.496490 155.319550,251.317474 
	C156.113388,250.831696 156.481323,250.782272 156.714508,250.578568 
	C177.587296,232.343964 201.609085,220.896637 229.094879,216.807831 
	C232.525833,216.297440 235.874130,215.231339 239.260727,214.422729 
	C239.609329,214.415268 239.957947,214.407806 240.709137,214.573364 
	C241.448853,214.571762 241.785980,214.397156 242.123123,214.222534 
	C257.844879,216.556091 272.558411,213.248840 286.064453,205.313995 
	C304.112274,194.710770 315.778320,179.181488 320.299164,158.489960 
	C325.040649,136.788666 319.980865,117.229469 306.523804,100.107201 
	C291.889648,81.487183 272.231079,72.816437 248.418793,72.935852 
	C203.616776,73.160561 158.812836,73.000648 114.009689,73.000648 
	C112.202530,73.000648 110.395370,73.000648 107.999435,73.000648 
	C107.999435,49.106693 107.999435,25.522003 107.999718,1.468657 
	C161.020889,1.000000 214.041794,1.000000 267.531342,1.000001 
z"/>
<path fill="#B3B3B3" opacity="1.000000" stroke="none" 
	d="
M259.862305,287.781677 
	C260.478241,287.192902 261.064362,286.125336 261.714447,286.084869 
	C282.316956,284.802277 301.735382,279.240662 319.584137,268.996307 
	C328.837738,263.685181 337.343140,257.070435 346.525146,250.980865 
	C351.881989,256.118347 357.132843,261.117432 361.867249,266.565369 
	C370.208038,276.163330 376.534698,287.083588 381.882996,298.598083 
	C387.587799,310.880249 391.471008,323.672394 393.001923,337.145782 
	C393.709076,343.369202 394.895874,349.601807 394.895172,355.830170 
	C394.892914,375.736633 391.539337,395.090057 383.861145,413.563324 
	C375.460663,433.774231 363.045471,451.301758 346.722626,465.716675 
	C328.530273,481.782562 307.417633,492.721375 283.551453,497.917267 
	C278.902161,498.929474 274.165588,499.540771 269.234619,500.668488 
	C244.312439,501.000000 219.624878,501.000000 194.468964,500.531342 
	C194.000610,476.505127 194.000610,452.947540 194.000610,428.999634 
	C214.615021,428.999634 234.401230,429.001984 254.187439,428.995697 
	C256.017517,428.995117 257.896240,429.200348 259.670227,428.869568 
	C278.837341,425.295563 295.213043,417.135223 307.350677,401.160858 
	C319.016693,385.807190 324.036957,368.533691 321.728546,349.762939 
	C319.412933,330.933624 310.750397,315.019989 295.469482,302.978821 
	C284.894287,294.645721 273.202362,289.402161 259.862305,287.781677 
z"/>
<path fill="#47704C" opacity="1.000000" stroke="none" 
	d="
M259.446899,287.820404 
	C273.202362,289.402161 284.894287,294.645721 295.469482,302.978821 
	C310.750397,315.019989 319.412933,330.933624 321.728546,349.762939 
	C324.036957,368.533691 319.016693,385.807190 307.350677,401.160858 
	C295.213043,417.135223 278.837341,425.295563 259.670227,428.869568 
	C257.896240,429.200348 256.017517,428.995117 254.187439,428.995697 
	C234.401230,429.001984 214.615021,428.999634 194.000610,428.999634 
	C194.000610,452.947540 194.000610,476.505127 194.000305,500.531342 
	C189.643097,501.000000 185.286194,501.000000 180.464645,501.000000 
	C179.999924,454.357147 180.099182,407.713959 179.959976,361.071533 
	C179.884750,335.865845 189.583267,315.564819 209.857498,300.656616 
	C217.706161,294.885254 226.306046,290.781952 236.400772,289.204620 
	C244.014984,288.014893 251.334000,286.103851 259.446899,287.820404 
z"/>
<path fill="#B3B3B3" opacity="1.000000" stroke="none" 
	d="
M238.880127,214.248077 
	C235.874130,215.231339 232.525833,216.297440 229.094879,216.807831 
	C201.609085,220.896637 177.587296,232.343964 156.714508,250.578568 
	C156.481323,250.782272 156.113388,250.831696 155.471954,251.017776 
	C146.830032,241.609924 137.758926,232.691406 130.406128,222.529556 
	C120.448387,208.767578 114.192688,192.978241 110.724701,176.331497 
	C108.852829,167.346268 107.423103,158.128708 107.163269,148.977097 
	C106.624809,130.011993 107.000847,111.020912 107.000870,92.040520 
	C107.000870,90.234253 107.000870,88.427979 107.000870,86.316528 
	C130.914627,86.316528 154.481247,86.316528 178.999054,86.316528 
	C178.999054,88.178818 178.999023,90.079041 178.999039,91.979263 
	C178.999146,108.795227 178.834320,125.613304 179.049561,142.426514 
	C179.234451,156.868683 183.198303,170.422424 191.140564,182.446793 
	C201.790833,198.571045 216.639023,209.017578 235.756958,213.023468 
	C236.702957,213.221695 237.586777,213.716660 238.880127,214.248077 
z"/>
<path fill="#B3B3B3" opacity="1.000000" stroke="none" 
	d="
M241.787628,214.195068 
	C241.785980,214.397156 241.448853,214.571762 240.970459,214.584656 
	C241.036850,214.337830 241.244492,214.252716 241.787628,214.195068 
z"/>
</svg>